<svg width="45" height="45" viewBox="0 0 45 45" fill="none" xmlns="http://www.w3.org/2000/svg">
<path fill-rule="evenodd" clip-rule="evenodd" d="M22.4999 -0.000315C34.9264 -0.000315 45 10.0733 45 22.4997C45 34.9262 34.9264 44.9998 22.4999 44.9998C10.0736 44.9998 0 34.9262 0 22.4997C0 10.0733 10.0736 -0.000315 22.4999 -0.000315Z" fill="#467500"/>
<path d="M16.91 23.144H18.072C19.2025 23.144 19.9183 23.8055 19.927 24.719C19.941 25.6588 19.1797 26.3273 18.0265 26.3273C16.98 26.3203 16.2118 25.7585 16.1575 25.0043H14.25C14.3025 26.6038 15.6342 27.9583 18.0177 27.9583C20.1877 27.9583 22.0165 26.8033 21.9938 24.8118C21.971 23.144 20.6865 22.3968 19.7327 22.3058V22.1973C20.5027 22.0748 21.7015 21.275 21.6718 19.791C21.649 18.2055 20.2718 17.0435 18.079 17.0523C15.7865 17.061 14.5038 18.3368 14.4495 19.9748H16.3798C16.4183 19.2905 17.05 18.6605 18.0177 18.6605C18.9488 18.6605 19.6417 19.238 19.6417 20.0833C19.6487 20.9215 18.9715 21.5445 18.0177 21.5445H16.9117V23.144H16.91ZM23.2205 17.2518V27.75H27.0512C30.2187 27.75 31.75 25.8128 31.75 22.4738C31.75 19.1593 30.2432 17.2518 27.0512 17.2518H23.2205ZM25.2977 18.944H26.7747C28.7207 18.944 29.6115 20.1445 29.6115 22.514C29.6115 24.8818 28.7277 26.049 26.7747 26.049H25.2977V18.944Z" fill="white"/>
<path d="M33.5 13.75C33.9641 13.75 34.4092 13.9344 34.7374 14.2626C35.0656 14.5908 35.25 15.0359 35.25 15.5V29.5C35.25 29.9641 35.0656 30.4092 34.7374 30.7374C34.4092 31.0656 33.9641 31.25 33.5 31.25H12.5C12.0359 31.25 11.5908 31.0656 11.2626 30.7374C10.9344 30.4092 10.75 29.9641 10.75 29.5V15.5C10.75 15.0359 10.9344 14.5908 11.2626 14.2626C11.5908 13.9344 12.0359 13.75 12.5 13.75H33.5ZM12.5 12C11.5717 12 10.6815 12.3687 10.0251 13.0251C9.36875 13.6815 9 14.5717 9 15.5V29.5C9 30.4283 9.36875 31.3185 10.0251 31.9749C10.6815 32.6313 11.5717 33 12.5 33H33.5C34.4283 33 35.3185 32.6313 35.9749 31.9749C36.6313 31.3185 37 30.4283 37 29.5V15.5C37 14.5717 36.6313 13.6815 35.9749 13.0251C35.3185 12.3687 34.4283 12 33.5 12H12.5Z" fill="white"/>
</svg>
