<svg width="34" height="34" viewBox="0 0 34 34" fill="none" xmlns="http://www.w3.org/2000/svg">
<path fill-rule="evenodd" clip-rule="evenodd" d="M17 0C26.3889 0 34.0001 7.61134 34.0001 17.0001C34.0001 26.389 26.3889 34 17 34C7.61124 34 0 26.389 0 17.0001C0 7.61134 7.61124 0 17 0Z" fill="#467500"/>
<path d="M16.7777 5C11.9215 5 8 8.92146 8 13.7777C8 15.4709 8.54089 17.0877 9.29343 18.4164L15.0139 28.317C15.3726 28.9637 16.0957 29.287 16.7777 29.287C17.4598 29.287 18.1476 28.9637 18.5415 28.317L24.262 18.4223C25.0204 17.0935 25.5554 15.5061 25.5554 13.7835C25.5554 8.92733 21.634 5 16.7777 5ZM16.7777 16.3705C15.0139 16.3705 13.5735 14.93 13.5735 13.1663C13.5735 11.4025 15.0139 9.96208 16.7777 9.96208C18.5415 9.96208 19.9819 11.4025 19.9819 13.1663C19.9819 14.9359 18.5415 16.3705 16.7777 16.3705Z" fill="white"/>
</svg>
