<svg width="34" height="34" viewBox="0 0 34 34" fill="none" xmlns="http://www.w3.org/2000/svg">
<path fill-rule="evenodd" clip-rule="evenodd" d="M16.9999 -0.000204C26.3887 -0.000204 33.9999 7.61114 33.9999 16.9999C33.9999 26.3888 26.3887 33.9998 16.9999 33.9998C7.6111 33.9998 -0.000136 26.3888 -0.000136 16.9999C-0.000136 7.61114 7.6111 -0.000204 16.9999 -0.000204Z" fill="#467500"/>
<path d="M21.5754 26.8889C20.9656 26.8889 20.3611 26.7811 19.7699 26.5663C17.1655 25.6202 14.748 24.0793 12.7788 22.1101C10.8096 20.1409 9.26862 17.7234 8.32256 15.119C8.01854 14.282 7.92882 13.418 8.05598 12.5509C8.1751 11.7387 8.48971 10.9503 8.96582 10.2707C9.44404 9.58822 10.0816 9.02055 10.8095 8.6291C11.5858 8.21168 12.433 8 13.3279 8C13.6062 8 13.8467 8.19445 13.905 8.46656L14.8315 12.7901C14.8734 12.9859 14.8133 13.1896 14.6717 13.3312L13.0886 14.9143C14.582 17.8835 17.0053 20.3067 19.9745 21.8002L21.5576 20.2171C21.6991 20.0755 21.9029 20.0154 22.0987 20.0573L26.4222 20.9838C26.6944 21.0421 26.8888 21.2826 26.8888 21.5609C26.8888 22.4558 26.6771 23.3031 26.2597 24.0793C25.8682 24.8072 25.3005 25.4448 24.618 25.923C23.9385 26.3991 23.1501 26.7137 22.3378 26.8329C22.0833 26.8702 21.8288 26.8889 21.5754 26.8889ZM12.8563 9.20633C11.6759 9.33663 10.6283 9.95529 9.93262 10.9482C9.15031 12.0647 8.96789 13.438 9.43212 14.7159C11.251 19.723 15.1659 23.6379 20.1729 25.4567C21.4509 25.921 22.8242 25.7386 23.9407 24.9562C24.9336 24.2606 25.5522 23.2129 25.6825 22.0326L22.1653 21.2789L20.512 22.9322C20.3361 23.1082 20.0688 23.1549 19.8437 23.0491C16.332 21.3993 13.4895 18.5568 11.8398 15.0452C11.734 14.82 11.7807 14.5527 11.9566 14.3768L13.6099 12.7235L12.8563 9.20633Z" fill="white"/>
<path d="M26.299 18.0343C25.9731 18.0343 25.7088 17.77 25.7088 17.4441C25.7088 12.8875 22.0018 9.18051 17.4452 9.18051C17.1193 9.18051 16.855 8.91622 16.855 8.59025C16.855 8.26429 17.1193 8 17.4452 8C19.9679 8 22.3395 8.98233 24.1232 10.7661C25.907 12.5498 26.8893 14.9214 26.8893 17.4441C26.8893 17.77 26.625 18.0343 26.299 18.0343Z" fill="white"/>
<path d="M23.938 18.0346C23.6121 18.0346 23.3478 17.7703 23.3478 17.4444C23.3478 14.1897 20.6999 11.5418 17.4452 11.5418C17.1193 11.5418 16.855 11.2775 16.855 10.9516C16.855 10.6256 17.1193 10.3613 17.4452 10.3613C21.3508 10.3613 24.5283 13.5388 24.5283 17.4444C24.5283 17.7703 24.264 18.0346 23.938 18.0346Z" fill="white"/>
<path d="M21.577 18.0344C21.251 18.0344 20.9868 17.7702 20.9868 17.4442C20.9868 15.4914 19.3981 13.9027 17.4452 13.9027C17.1193 13.9027 16.855 13.6384 16.855 13.3124C16.855 12.9865 17.1193 12.7222 17.4452 12.7222C20.049 12.7222 22.1673 14.8404 22.1673 17.4442C22.1673 17.7702 21.903 18.0344 21.577 18.0344Z" fill="white"/>
</svg>
