<svg width="16" height="12" viewBox="0 0 16 12" fill="none" xmlns="http://www.w3.org/2000/svg">
<path d="M2.39092 3.39597V11.9292H1.36376C0.978943 11.9292 0.666748 11.617 0.666748 11.2322V2.13916L1.79287 2.16985L2.39092 3.39597Z" fill="white"/>
<path d="M15.4507 2.13884V11.2319C15.4507 11.6167 15.1385 11.9289 14.7534 11.9289H13.7266V3.39565L14.2952 2.05225L15.4507 2.13884Z" fill="white"/>
<path d="M15.4507 1.364V2.13915L13.7265 3.39595L8.05871 7.52702L2.39092 3.39595L0.666748 2.13915V1.364C0.666748 0.979187 0.978943 0.666992 1.36376 0.666992H1.76728L8.05871 5.25258L14.3501 0.666992H14.7533C15.1385 0.666992 15.4507 0.979158 15.4507 1.364Z" fill="white"/>
<path d="M2.39092 3.39597L0.666748 3.12864V2.13916L2.39092 3.39597Z" fill="white"/>
</svg>
