<svg width="45" height="45" viewBox="0 0 45 45" fill="none" xmlns="http://www.w3.org/2000/svg">
<path fill-rule="evenodd" clip-rule="evenodd" d="M22.4999 -0.000315C34.9264 -0.000315 45 10.0733 45 22.4997C45 34.9262 34.9264 44.9998 22.4999 44.9998C10.0736 44.9998 0 34.9262 0 22.4997C0 10.0733 10.0736 -0.000315 22.4999 -0.000315Z" fill="#467500"/>
<path d="M32.85 10.6286C32.85 10.4041 32.7608 10.1888 32.6021 10.03C32.4433 9.87129 32.228 9.7821 32.0035 9.7821H13.3797C13.1552 9.7821 12.9399 9.87129 12.7811 10.03C12.6224 10.1888 12.5332 10.4041 12.5332 10.6286V11.4752H32.85V10.6286Z" fill="white"/>
<path d="M34.5272 14.0147C34.5272 13.7902 34.438 13.5749 34.2792 13.4162C34.1205 13.2574 33.9052 13.1682 33.6807 13.1682H11.6708C11.4462 13.1682 11.2309 13.2574 11.0722 13.4162C10.9134 13.5749 10.8242 13.7902 10.8242 14.0147V14.8613H34.5272V14.0147Z" fill="white"/>
<path d="M34.5269 16.5543H10.6208C10.1987 16.5543 9.79389 16.722 9.49543 17.0205C9.19697 17.3189 9.0293 17.7237 9.0293 18.1458V33.5866C9.0293 34.0087 9.19697 34.4135 9.49543 34.7119C9.79389 35.0104 10.1987 35.1781 10.6208 35.1781H34.5269C34.949 35.1781 35.3538 35.0104 35.6523 34.7119C35.9507 34.4135 36.1184 34.0087 36.1184 33.5866V18.1458C36.1184 17.7237 35.9507 17.3189 35.6523 17.0205C35.3538 16.722 34.949 16.5543 34.5269 16.5543ZM14.5826 19.4749C15.0849 19.4749 15.5759 19.6238 15.9935 19.9029C16.4111 20.1819 16.7366 20.5786 16.9289 21.0426C17.1211 21.5067 17.1714 22.0173 17.0734 22.5099C16.9754 23.0026 16.7335 23.4551 16.3783 23.8102C16.0232 24.1654 15.5707 24.4073 15.078 24.5053C14.5854 24.6033 14.0748 24.553 13.6107 24.3608C13.1466 24.1685 12.75 23.843 12.471 23.4254C12.1919 23.0078 12.043 22.5168 12.043 22.0145C12.043 21.3409 12.3105 20.695 12.7868 20.2187C13.2631 19.7424 13.909 19.4749 14.5826 19.4749ZM32.7323 31.7919H12.4154L18.7306 25.4683C18.8432 25.3567 18.9953 25.294 19.1539 25.294C19.3124 25.294 19.4645 25.3567 19.5771 25.4683L22.6924 28.5836L26.9843 24.1731C27.0969 24.0615 27.249 23.9988 27.4076 23.9988C27.5661 23.9988 27.7183 24.0615 27.8308 24.1731L32.7323 29.0746V31.7919Z" fill="white"/>
</svg>
