<svg width="0" height="0" position="absolute"><symbol id="mail" viewBox="0 0 23 17" xmlns="http://www.w3.org/2000/svg"><path d="M2.58626 4.09419V16.894H1.04552C0.468292 16.894 0 16.4258 0 15.8485V2.20898L1.68918 2.25503L2.58626 4.09419Z"></path><path d="M22.1759 2.20802V15.8476C22.1759 16.4248 21.7076 16.8931 21.1298 16.8931H19.5896V4.09323L20.4425 2.07812L22.1759 2.20802Z"></path><path d="M22.1759 1.04552V2.20823L19.5896 4.09344L11.0879 10.29L2.58626 4.09344L0 2.20823V1.04552C0 0.468292 0.468292 0 1.04552 0H1.6508L11.0879 6.87838L20.5251 0H21.1298C21.7076 0 22.1759 0.468249 22.1759 1.04552Z"></path><path d="M2.58626 4.09419L0 3.69321V2.20898L2.58626 4.09419Z"></path></symbol><symbol id="telega" viewBox="0 0 24 24" xmlns="http://www.w3.org/2000/svg"><path d="M12 0C5.37058 0 0 5.37136 0 12C0 18.6286 5.37136 24 12 24C18.6294 24 24 18.6286 24 12C24 5.37136 18.6286 0 12 0ZM17.8939 8.22116L15.9244 17.5022C15.7788 18.1603 15.3871 18.3197 14.8405 18.0101L11.8405 15.799L10.3935 17.1925C10.2341 17.352 10.0986 17.4875 9.7889 17.4875L10.0018 14.4341L15.5613 9.4111C15.8036 9.19819 15.5079 9.07742 15.1881 9.29032L8.31716 13.6157L5.35587 12.6914C4.71252 12.4885 4.69781 12.048 5.49135 11.7383L17.0609 7.27665C17.5982 7.0831 18.0674 7.40748 17.8932 8.22039L17.8939 8.22116Z"></path></symbol><symbol id="viber" viewBox="0 0 22 24" xmlns="http://www.w3.org/2000/svg"><path d="M21.756 13.894C22.4714 7.87226 21.4123 4.07062 19.502 2.35113L19.503 2.35014C16.4197 -0.586275 6.0069 -1.02089 2.31815 2.48202C0.661613 4.19551 0.0781277 6.71029 0.0141841 9.82354C-0.0497595 12.9378 -0.125693 18.7717 5.31051 20.3543H5.31551L5.31051 22.7711C5.31051 22.7711 5.27354 23.7503 5.89899 23.9471C6.61436 24.1789 6.93808 23.7243 9.16311 21.0666C12.8838 21.3893 15.7413 20.65 16.066 20.5421C16.8174 20.2903 21.0686 19.7278 21.756 13.894ZM9.52979 19.3661C9.52979 19.3661 7.17487 22.3025 6.44251 23.0649C6.20272 23.3126 5.93996 23.2897 5.94395 22.7981C5.94395 22.4754 5.96194 18.7856 5.96194 18.7856C1.353 17.4648 1.62476 12.4972 1.67472 9.89848C1.72468 7.29877 2.20026 5.16965 3.60302 3.73591C6.83916 0.70159 15.9681 1.37999 18.2941 3.56606C21.1376 6.08684 20.1254 13.2086 20.1314 13.4513C19.547 18.321 16.102 18.6298 15.4686 18.8406C15.1978 18.9305 12.685 19.5769 9.52979 19.3661Z"></path><path d="M10.8327 4.30664C10.448 4.30664 10.448 4.90611 10.8327 4.91111C13.8171 4.93409 16.2749 7.01425 16.3019 10.8299C16.3019 11.2325 16.8913 11.2275 16.8863 10.8249H16.8853C16.8534 6.71352 14.1697 4.32962 10.8327 4.30664Z"></path><path d="M14.758 10.197C14.749 10.5947 15.3375 10.6137 15.3425 10.211C15.3915 7.94403 13.9937 6.07667 11.367 5.87985C10.9824 5.85187 10.9424 6.45634 11.3261 6.48431C13.604 6.65716 14.804 8.21179 14.758 10.197Z"></path><path d="M14.1287 12.776C13.6352 12.4903 13.1326 12.6681 12.9248 12.9489L12.4902 13.5114C12.2694 13.7971 11.8568 13.7592 11.8568 13.7592C8.84541 12.9629 8.04012 9.81165 8.04012 9.81165C8.04012 9.81165 8.00315 9.38502 8.27891 9.15623L8.82243 8.70662C9.09419 8.49081 9.26604 7.97127 8.98928 7.46072C8.24993 6.1249 7.75337 5.66431 7.50059 5.31062C7.23483 4.97791 6.83518 4.90298 6.41955 5.12778H6.41056C5.54632 5.63333 4.60015 6.5795 4.90289 7.55364C5.41943 8.58073 6.36859 11.8548 9.39392 14.3287C10.8157 15.4986 13.0657 16.6976 14.0208 16.9743L14.0298 16.9883C14.971 17.302 15.8862 16.3189 16.3748 15.4287V15.4217C16.5916 14.9911 16.5196 14.5834 16.2029 14.3167C15.6414 13.7692 14.7942 13.1647 14.1287 12.776Z"></path><path d="M11.7787 8.10999C12.7389 8.16594 13.2045 8.6675 13.2544 9.69759C13.2724 10.1002 13.8569 10.0723 13.8389 9.66961C13.775 8.3248 13.0736 7.57546 11.8107 7.50552C11.426 7.48254 11.3901 8.08701 11.7787 8.10999Z"></path></symbol><symbol id="whatsapp" viewBox="0 0 22 22" xmlns="http://www.w3.org/2000/svg"><path d="M18.794 3.20106C17.7804 2.18238 16.5732 1.3747 15.2426 0.825119C13.9121 0.275542 12.4849 -0.00492811 11.0442 6.55264e-05C5.00804 6.55264e-05 0.0884424 4.89505 0.0884424 10.901C0.0884424 12.826 0.596985 14.696 1.54774 16.346L0 22L5.80402 20.482C7.40703 21.351 9.20904 21.813 11.0442 21.813C17.0804 21.813 22 16.918 22 10.912C22 7.99704 20.8613 5.25805 18.794 3.20106ZM11.0442 19.965C9.40804 19.965 7.80502 19.525 6.401 18.7L6.06935 18.502L2.6201 19.404L3.53769 16.06L3.31658 15.719C2.40756 14.2747 1.92488 12.6052 1.92362 10.901C1.92362 5.90705 6.01407 1.83706 11.0332 1.83706C13.4653 1.83706 15.7538 2.78306 17.4673 4.49905C18.3158 5.33941 18.9882 6.33898 19.4456 7.43981C19.9029 8.54065 20.1361 9.72086 20.1317 10.912C20.1538 15.906 16.0633 19.965 11.0442 19.965ZM16.0412 13.189C15.7648 13.057 14.4161 12.397 14.1729 12.298C13.9186 12.21 13.7417 12.166 13.5538 12.43C13.3658 12.705 12.8462 13.321 12.6915 13.497C12.5367 13.684 12.3709 13.706 12.0945 13.563C11.8181 13.431 10.9337 13.134 9.89447 12.21C9.07638 11.484 8.53467 10.593 8.36884 10.318C8.21407 10.043 8.34673 9.90004 8.49045 9.75704C8.61206 9.63604 8.76683 9.43804 8.8995 9.28404C9.03216 9.13004 9.08744 9.00904 9.17588 8.83304C9.26432 8.64604 9.2201 8.49204 9.15377 8.36004C9.08744 8.22804 8.53467 6.88605 8.31357 6.33605C8.09246 5.80805 7.8603 5.87405 7.69447 5.86305H7.16382C6.97588 5.86305 6.68844 5.92905 6.43417 6.20405C6.19095 6.47905 5.48342 7.13904 5.48342 8.48104C5.48342 9.82304 6.46734 11.121 6.6 11.297C6.73266 11.484 8.53467 14.234 11.2764 15.411C11.9286 15.697 12.4372 15.862 12.8352 15.983C13.4874 16.192 14.0844 16.159 14.5598 16.093C15.0905 16.016 16.1849 15.433 16.406 14.795C16.6382 14.157 16.6382 13.618 16.5608 13.497C16.4834 13.376 16.3176 13.321 16.0412 13.189Z"></path></symbol><symbol id="header-arrow" viewBox="0 0 9 5" xmlns="http://www.w3.org/2000/svg"><path d="M4.78058 4.54817L8.31272 1.01485C8.46737 0.859814 8.46737 0.608625 8.31272 0.453194C8.15808 0.298154 7.90689 0.298154 7.75224 0.453194L4.50035 3.70626L1.24846 0.453585C1.09382 0.298545 0.842627 0.298545 0.687587 0.453585C0.532938 0.608625 0.532938 0.860205 0.687587 1.01525L4.21973 4.54857C4.37278 4.70126 4.62792 4.70126 4.78058 4.54817Z"></path></symbol></svg>