<svg width="28" height="27" viewBox="0 0 28 27" fill="none" xmlns="http://www.w3.org/2000/svg">
<path d="M23.85 1.62864C23.85 1.40412 23.7608 1.1888 23.6021 1.03005C23.4433 0.871293 23.228 0.782104 23.0035 0.782104H4.37974C4.15522 0.782104 3.9399 0.871293 3.78115 1.03005C3.62239 1.1888 3.5332 1.40412 3.5332 1.62864V2.47517H23.85V1.62864Z" fill="white"/>
<path d="M25.5272 5.01475C25.5272 4.79023 25.438 4.57491 25.2792 4.41616C25.1205 4.2574 24.9052 4.16821 24.6807 4.16821H2.67075C2.44624 4.16821 2.23092 4.2574 2.07216 4.41616C1.91341 4.57491 1.82422 4.79023 1.82422 5.01475V5.86128H25.5272V5.01475Z" fill="white"/>
<path d="M25.5269 7.55432H1.62078C1.19869 7.55432 0.793893 7.722 0.495432 8.02046C0.196971 8.31892 0.0292969 8.72372 0.0292969 9.14581V24.5866C0.0292969 25.0087 0.196971 25.4135 0.495432 25.7119C0.793893 26.0104 1.19869 26.1781 1.62078 26.1781H25.5269C25.949 26.1781 26.3538 26.0104 26.6523 25.7119C26.9507 25.4135 27.1184 25.0087 27.1184 24.5866V9.14581C27.1184 8.72372 26.9507 8.31892 26.6523 8.02046C26.3538 7.722 25.949 7.55432 25.5269 7.55432ZM5.58256 10.4749C6.08485 10.4749 6.57586 10.6238 6.99349 10.9029C7.41113 11.1819 7.73664 11.5786 7.92885 12.0426C8.12107 12.5067 8.17136 13.0173 8.07337 13.5099C7.97538 14.0026 7.73351 14.4551 7.37834 14.8102C7.02317 15.1654 6.57065 15.4073 6.07802 15.5053C5.58538 15.6033 5.07475 15.553 4.6107 15.3608C4.14665 15.1685 3.75002 14.843 3.47096 14.4254C3.19191 14.0078 3.04296 13.5168 3.04296 13.0145C3.04296 12.3409 3.31052 11.695 3.78679 11.2187C4.26306 10.7424 4.90902 10.4749 5.58256 10.4749ZM23.7323 22.7919H3.41544L9.73058 16.4683C9.84316 16.3567 9.99529 16.294 10.1539 16.294C10.3124 16.294 10.4645 16.3567 10.5771 16.4683L13.6924 19.5836L17.9843 15.1731C18.0969 15.0615 18.249 14.9988 18.4076 14.9988C18.5661 14.9988 18.7183 15.0615 18.8308 15.1731L23.7323 20.0746V22.7919Z" fill="white"/>
</svg>
