<svg width="28" height="35" viewBox="0 0 28 35" fill="none" xmlns="http://www.w3.org/2000/svg">
<path d="M7.19004 21.6978H20.7682M2.62281 1.00846C2.1887 1.01928 1.77596 1.20181 1.47274 1.51706C1.16953 1.83231 0.999869 2.2553 1 2.69569V32.3128C0.999864 32.753 1.16941 33.1759 1.47244 33.4911C1.77548 33.8063 2.18801 33.989 2.62198 34H25.3363C25.7775 34 26.2007 33.8222 26.5127 33.5058C26.8247 33.1894 27 32.7603 27 32.3128V9.43785H20.3444C19.9101 9.42702 19.4973 9.24438 19.194 8.92894C18.8908 8.61351 18.7212 8.19031 18.7216 7.74977V1L2.62281 1.00846ZM18.6465 1.00846L26.9583 9.43785L18.6465 1.00846ZM7.19004 16.5929H20.7682H7.19004ZM7.19004 26.8026H20.7682H7.19004Z" stroke="#568F02" stroke-linecap="round" stroke-linejoin="round"/>
</svg>
