<svg width="27" height="27" viewBox="0 0 27 27" fill="none" xmlns="http://www.w3.org/2000/svg">
<path fill-rule="evenodd" clip-rule="evenodd" d="M3.27212 0.0515405C2.01927 0.275592 0.845267 1.19179 0.336404 2.34242C0.0989035 2.87945 0.0277535 3.25039 0.0277535 3.9514C0.0277535 4.87334 0.197638 5.44882 0.684454 6.17582C0.826649 6.38822 2.1073 7.71238 4.20873 9.81982L7.50964 13.1302L3.83684 16.8082C1.81679 18.8311 0.126172 20.5622 0.0798633 20.655C-0.0322151 20.8798 -0.0263607 21.1075 0.0976377 21.3454C0.223957 21.5879 5.44333 26.7997 5.67609 26.9158C5.89085 27.0229 6.12588 27.0229 6.34065 26.9158C6.43347 26.8695 8.16449 25.179 10.1873 23.159L13.8652 19.4863L16.0945 21.7024L18.3238 23.9184L22.1876 25.4592C24.3128 26.3066 26.1234 27 26.2114 27C26.6091 27 27 26.6091 27 26.2114C27 26.1234 26.3066 24.3128 25.4592 22.1876L23.9184 18.3238L21.7024 16.0945L19.4863 13.8652L23.159 10.1873C25.179 8.16449 26.8695 6.43347 26.9158 6.34065C27.0229 6.12588 27.0229 5.89085 26.9158 5.67609C26.7997 5.44333 21.5879 0.223957 21.3454 0.0976377C21.1075 -0.0263607 20.8798 -0.0322151 20.655 0.0798633C20.5622 0.126172 18.8311 1.8169 16.8081 3.83705L13.1299 7.51006L9.81966 4.20857C7.70389 2.09844 6.38906 0.826649 6.17582 0.684085C5.78384 0.422059 5.40008 0.245107 4.97213 0.129125C4.59159 0.0259602 3.65408 -0.0168142 3.27212 0.0515405ZM4.43668 1.63678C4.97962 1.75097 5.25889 1.92887 5.92925 2.58757L6.56216 3.20952L4.88584 4.88584L3.20952 6.56216L2.58757 5.92925C1.89327 5.22266 1.72728 4.94729 1.62059 4.32518C1.49216 3.57613 1.73314 2.83842 2.2862 2.28741C2.86853 1.7073 3.64913 1.47111 4.43668 1.63678ZM23.0443 3.97782L25.0744 6.00842L24.1916 6.89128L23.3087 7.77409L22.7633 7.23047C22.3488 6.81739 22.1713 6.67635 22.0245 6.64323C21.4541 6.51459 20.9564 6.99613 21.0644 7.57193C21.095 7.73527 21.2082 7.88168 21.6502 8.33031L22.1981 8.88628L21.3152 9.76803L20.4324 10.6498L19.5634 9.77958C19.0854 9.30094 18.6193 8.87372 18.5275 8.83016C18.1498 8.65094 17.6916 8.81655 17.5063 9.1993C17.2773 9.67235 17.3721 9.84799 18.4309 10.9136L19.2982 11.7862L18.4146 12.6687L17.5311 13.5511L17.0308 13.046C16.7557 12.7683 16.4665 12.5071 16.3881 12.4656C15.9054 12.2102 15.2918 12.6052 15.2913 13.1717C15.291 13.4857 15.3376 13.5582 15.916 14.1444L16.4239 14.659L15.5419 15.5409L14.66 16.4229L13.7493 15.5193C12.7811 14.5588 12.6405 14.4665 12.2711 14.5499C12.1737 14.5718 12.0321 14.6303 11.9566 14.6798C11.6824 14.8595 11.5671 15.3475 11.7274 15.6497C11.7689 15.7281 12.1962 16.1835 12.6767 16.6618L13.5506 17.5315L12.6684 18.4148L11.7862 19.2982L10.9136 18.4309C9.84799 17.3721 9.67235 17.2773 9.1993 17.5063C8.81655 17.6916 8.65094 18.1498 8.83016 18.5275C8.87372 18.6193 9.30094 19.0854 9.77958 19.5634L10.6498 20.4324L9.76803 21.3152L8.88628 22.1981L8.33031 21.6502C7.88168 21.2082 7.73527 21.095 7.57193 21.0644C6.99613 20.9564 6.51459 21.4541 6.64323 22.0245C6.67635 22.1713 6.81739 22.3488 7.23047 22.7633L7.77409 23.3087L6.89117 24.1917L6.00826 25.0746L3.96458 23.0309L1.92096 20.9873L11.4409 11.4672C16.6769 6.2312 20.9729 1.94717 20.9875 1.94717C21.0022 1.94717 21.9278 2.86094 23.0443 3.97782ZM11.4404 9.19915L10.8865 9.75305L8.72494 7.59097L6.56333 5.42888L7.11607 4.87429L7.66876 4.31975L9.83153 6.48252L11.9943 8.64529L11.4404 9.19915ZM7.60441 8.73839L9.75379 10.8882L9.1993 11.4409L8.64482 11.9935L6.48305 9.83222L4.32123 7.67092L4.86058 7.12973C5.15725 6.83205 5.41232 6.58854 5.42751 6.58854C5.44265 6.58854 6.42229 7.556 7.60441 8.73839ZM20.2364 16.8872L22.0956 18.747L21.5411 19.2996L20.9866 19.8521L19.115 17.981L17.2432 16.1098L17.7826 15.5686C18.0792 15.271 18.3344 15.0274 18.3495 15.0274C18.3647 15.0274 19.2138 15.8643 20.2364 16.8872ZM19.2991 21.541L18.7452 22.0949L16.8737 20.2229L15.0022 18.3509L15.5549 17.7963L16.1076 17.2417L17.9802 19.1144L19.8529 20.9871L19.2991 21.541ZM23.784 22.2795C24.2245 23.3818 24.6294 24.3959 24.6836 24.533L24.7823 24.7823L24.533 24.6836C23.3111 24.2 20.2656 22.9754 20.2297 22.9533C20.2047 22.9378 20.7974 22.3116 21.5468 21.5618C22.2962 20.812 22.926 20.2157 22.9462 20.2368C22.9665 20.258 23.3435 21.1772 23.784 22.2795Z" fill="white"/>
</svg>
