<svg width="28" height="21" viewBox="0 0 28 21" fill="none" xmlns="http://www.w3.org/2000/svg">
<path d="M7.91 11.1443H9.072C10.2025 11.1443 10.9182 11.8058 10.927 12.7193C10.941 13.659 10.1797 14.3275 9.0265 14.3275C7.98 14.3205 7.21175 13.7588 7.1575 13.0045H5.25C5.3025 14.604 6.63425 15.9585 9.01775 15.9585C11.1877 15.9585 13.0165 14.8035 12.9938 12.812C12.971 11.1443 11.6865 10.397 10.7327 10.306V10.1975C11.5027 10.075 12.7015 9.27529 12.6718 7.79129C12.649 6.20579 11.2718 5.04379 9.079 5.05254C6.7865 5.06129 5.50375 6.33704 5.4495 7.97504H7.37975C7.41825 7.29079 8.05 6.66079 9.01775 6.66079C9.94875 6.66079 10.6417 7.23829 10.6417 8.08354C10.6487 8.92179 9.9715 9.54479 9.01775 9.54479H7.91175V11.1443H7.91ZM14.2205 5.25204V15.7503H18.0512C21.2187 15.7503 22.75 13.813 22.75 10.474C22.75 7.15954 21.2432 5.25204 18.0512 5.25204H14.2205ZM16.2977 6.94429H17.7747C19.7207 6.94429 20.6115 8.14479 20.6115 10.5143C20.6115 12.882 19.7277 14.0493 17.7747 14.0493H16.2977V6.94429V6.94429Z" fill="white"/>
<path d="M24.5 1.75024C24.9641 1.75024 25.4092 1.93462 25.7374 2.26281C26.0656 2.591 26.25 3.03612 26.25 3.50024V17.5002C26.25 17.9644 26.0656 18.4095 25.7374 18.7377C25.4092 19.0659 24.9641 19.2502 24.5 19.2502H3.5C3.03587 19.2502 2.59075 19.0659 2.26256 18.7377C1.93437 18.4095 1.75 17.9644 1.75 17.5002V3.50024C1.75 3.03612 1.93437 2.591 2.26256 2.26281C2.59075 1.93462 3.03587 1.75024 3.5 1.75024H24.5ZM3.5 0.000244141C2.57174 0.000244141 1.6815 0.368993 1.02513 1.02537C0.368749 1.68175 0 2.57199 0 3.50024L0 17.5002C0 18.4285 0.368749 19.3187 1.02513 19.9751C1.6815 20.6315 2.57174 21.0002 3.5 21.0002H24.5C25.4283 21.0002 26.3185 20.6315 26.9749 19.9751C27.6313 19.3187 28 18.4285 28 17.5002V3.50024C28 2.57199 27.6313 1.68175 26.9749 1.02537C26.3185 0.368993 25.4283 0.000244141 24.5 0.000244141H3.5Z" fill="white"/>
</svg>
