<svg width="45" height="45" viewBox="0 0 45 45" fill="none" xmlns="http://www.w3.org/2000/svg">
<path fill-rule="evenodd" clip-rule="evenodd" d="M22.4999 -0.000244141C34.9264 -0.000244141 45 10.0734 45 22.4998C45 34.9262 34.9264 44.9999 22.4999 44.9999C10.0736 44.9999 0 34.9262 0 22.4998C0 10.0734 10.0736 -0.000244141 22.4999 -0.000244141Z" fill="#467500"/>
<path fill-rule="evenodd" clip-rule="evenodd" d="M12.2721 9.0513C11.0193 9.27535 9.84527 10.1915 9.3364 11.3422C9.0989 11.8792 9.02775 12.2501 9.02775 12.9512C9.02775 13.8731 9.19764 14.4486 9.68445 15.1756C9.82665 15.388 11.1073 16.7121 13.2087 18.8196L16.5096 22.13L12.8368 25.808C10.8168 27.8309 9.12617 29.562 9.07986 29.6548C8.96778 29.8795 8.97364 30.1072 9.09764 30.3452C9.22396 30.5877 14.4433 35.7994 14.6761 35.9156C14.8909 36.0227 15.1259 36.0227 15.3406 35.9156C15.4335 35.8693 17.1645 34.1787 19.1873 32.1587L22.8652 28.486L25.0945 30.7021L27.3238 32.9182L31.1876 34.459C33.3128 35.3064 35.1234 35.9998 35.2114 35.9998C35.6091 35.9998 36 35.6089 36 35.2111C36 35.1232 35.3066 33.3125 34.4592 31.1874L32.9184 27.3236L30.7024 25.0943L28.4863 22.865L32.159 19.1871C34.179 17.1642 35.8695 15.4332 35.9158 15.3404C36.0229 15.1256 36.0229 14.8906 35.9158 14.6758C35.7997 14.4431 30.5879 9.22371 30.3454 9.09739C30.1075 8.9734 29.8798 8.96754 29.655 9.07962C29.5622 9.12593 27.8311 10.8167 25.8081 12.8368L22.1299 16.5098L18.8197 13.2083C16.7039 11.0982 15.3891 9.8264 15.1758 9.68384C14.7838 9.42181 14.4001 9.24486 13.9721 9.12888C13.5916 9.02572 12.6541 8.98294 12.2721 9.0513ZM13.4367 10.6365C13.9796 10.7507 14.2589 10.9286 14.9293 11.5873L15.5622 12.2093L13.8858 13.8856L12.2095 15.5619L11.5876 14.929C10.8933 14.2224 10.7273 13.947 10.6206 13.3249C10.4922 12.5759 10.7331 11.8382 11.2862 11.2872C11.8685 10.7071 12.6491 10.4709 13.4367 10.6365ZM32.0443 12.9776L34.0744 15.0082L33.1916 15.891L32.3087 16.7738L31.7633 16.2302C31.3488 15.8171 31.1713 15.6761 31.0245 15.643C30.4541 15.5143 29.9564 15.9959 30.0644 16.5717C30.095 16.735 30.2082 16.8814 30.6502 17.3301L31.1981 17.886L30.3152 18.7678L29.4324 19.6495L28.5634 18.7793C28.0854 18.3007 27.6193 17.8735 27.5275 17.8299C27.1498 17.6507 26.6916 17.8163 26.5063 18.1991C26.2773 18.6721 26.3721 18.8477 27.4309 19.9133L28.2982 20.786L27.4146 21.6684L26.5311 22.5508L26.0308 22.0458C25.7557 21.768 25.4665 21.5068 25.3881 21.4654C24.9054 21.2099 24.2918 21.6049 24.2913 22.1714C24.291 22.4855 24.3376 22.5579 24.916 23.1441L25.4239 23.6587L24.5419 24.5407L23.66 25.4227L22.7493 24.5191C21.7811 23.5585 21.6405 23.4663 21.2711 23.5496C21.1737 23.5715 21.0321 23.63 20.9566 23.6796C20.6824 23.8592 20.5671 24.3473 20.7274 24.6495C20.7689 24.7278 21.1962 25.1833 21.6767 25.6616L22.5506 26.5313L21.6684 27.4146L20.7862 28.2979L19.9136 27.4307C18.848 26.3718 18.6724 26.277 18.1993 26.5061C17.8166 26.6913 17.6509 27.1495 17.8302 27.5273C17.8737 27.619 18.3009 28.0852 18.7796 28.5631L19.6498 29.4321L18.768 30.315L17.8863 31.1979L17.3303 30.65C16.8817 30.2079 16.7353 30.0948 16.5719 30.0641C15.9961 29.9561 15.5146 30.4539 15.6432 31.0242C15.6764 31.1711 15.8174 31.3485 16.2305 31.763L16.7741 32.3085L15.8912 33.1914L15.0083 34.0744L12.9646 32.0307L10.921 29.987L20.4409 20.467C25.6769 15.231 29.9729 10.9469 29.9875 10.9469C30.0022 10.9469 30.9278 11.8607 32.0443 12.9776ZM20.4404 18.1989L19.8865 18.7528L17.7249 16.5907L15.5633 14.4286L16.1161 13.874L16.6688 13.3195L18.8315 15.4823L20.9943 17.6451L20.4404 18.1989ZM16.6044 17.7381L18.7538 19.888L18.1993 20.4406L17.6448 20.9933L15.4831 18.832L13.3212 16.6707L13.8606 16.1295C14.1573 15.8318 14.4123 15.5883 14.4275 15.5883C14.4426 15.5883 15.4223 16.5558 16.6044 17.7381ZM29.2364 25.887L31.0956 27.7467L30.5411 28.2993L29.9866 28.8519L28.115 26.9807L26.2432 25.1095L26.7826 24.5683C27.0792 24.2707 27.3344 24.0271 27.3495 24.0271C27.3647 24.0271 28.2138 24.8641 29.2364 25.887ZM28.2991 30.5408L27.7452 31.0946L25.8737 29.2226L24.0022 27.3506L24.5549 26.796L25.1076 26.2415L26.9802 28.1142L28.8529 29.9869L28.2991 30.5408ZM32.784 31.2793C33.2245 32.3816 33.6294 33.3957 33.6836 33.5328L33.7823 33.782L33.533 33.6833C32.3111 33.1997 29.2656 31.9752 29.2297 31.953C29.2047 31.9376 29.7974 31.3114 30.5468 30.5616C31.2962 29.8117 31.926 29.2155 31.9462 29.2366C31.9665 29.2577 32.3435 30.177 32.784 31.2793Z" fill="white"/>
</svg>
