<svg width="114" height="114" viewBox="0 0 114 114" fill="none" xmlns="http://www.w3.org/2000/svg">
<path d="M111.394 98.802L84.741 72.1489C90.8019 63.151 93.7923 51.9086 92.1913 39.9293C89.4681 19.5442 72.7571 2.96679 52.3565 0.383875C22.0295 -3.45488 -3.46566 22.0448 0.386451 52.354C2.96937 72.759 19.5512 89.4723 39.9318 92.1888C51.9134 93.79 63.1558 90.8005 72.1515 84.7384L98.8045 111.391C102.283 114.87 107.923 114.87 111.401 111.391C114.868 107.931 114.868 102.276 111.394 98.802V98.802ZM64.1221 51.6637H51.4525V64.133C51.4525 67.0855 49.0611 69.4769 46.3089 69.4769C43.3475 69.4769 40.965 67.0944 40.965 64.133V51.6637H28.2953C25.5343 51.6637 23.1517 49.2812 23.1517 46.3197C23.1517 43.3583 25.5432 40.9758 28.2953 40.9758H40.965V28.5065C40.965 25.554 43.3564 23.1625 46.1085 23.1625C48.8607 23.1625 51.4525 25.5451 51.4525 28.5065V40.9758H63.9218C67.0836 40.9758 69.4661 43.3583 69.4661 46.3197C69.4661 49.2812 67.0836 51.6637 64.1221 51.6637Z" fill="#467500"/>
</svg>
