<svg width="34" height="34" viewBox="0 0 34 34" fill="none" xmlns="http://www.w3.org/2000/svg">
<path d="M3.25 0.7525L10.75 0.76C11.0815 0.76 11.3995 0.891696 11.6339 1.12612C11.8683 1.36054 12 1.67848 12 2.01C12 2.34152 11.8683 2.65946 11.6339 2.89388C11.3995 3.1283 11.0815 3.26 10.75 3.26L3.25 3.2525V10.75C3.25 11.0815 3.1183 11.3995 2.88388 11.6339C2.64946 11.8683 2.33152 12 2 12C1.66848 12 1.35054 11.8683 1.11612 11.6339C0.881696 11.3995 0.75 11.0815 0.75 10.75V0.75H3.25V0.7525ZM3.25 33.2475V33.25H0.75V23.25C0.75 22.9185 0.881696 22.6005 1.11612 22.3661C1.35054 22.1317 1.66848 22 2 22C2.33152 22 2.64946 22.1317 2.88388 22.3661C3.1183 22.6005 3.25 22.9185 3.25 23.25V30.7475L10.75 30.74C11.0815 30.74 11.3995 30.8717 11.6339 31.1061C11.8683 31.3405 12 31.6585 12 31.99C12 32.3215 11.8683 32.6395 11.6339 32.8739C11.3995 33.1083 11.0815 33.24 10.75 33.24L3.25 33.2475ZM30.75 0.7525V0.75H33.25V10.75C33.25 11.0815 33.1183 11.3995 32.8839 11.6339C32.6495 11.8683 32.3315 12 32 12C31.6685 12 31.3505 11.8683 31.1161 11.6339C30.8817 11.3995 30.75 11.0815 30.75 10.75V3.2525L23.25 3.26C22.9185 3.26 22.6005 3.1283 22.3661 2.89388C22.1317 2.65946 22 2.34152 22 2.01C22 1.67848 22.1317 1.36054 22.3661 1.12612C22.6005 0.891696 22.9185 0.76 23.25 0.76L30.75 0.7525ZM30.75 33.2475L23.25 33.24C22.9185 33.24 22.6005 33.1083 22.3661 32.8739C22.1317 32.6395 22 32.3215 22 31.99C22 31.6585 22.1317 31.3405 22.3661 31.1061C22.6005 30.8717 22.9185 30.74 23.25 30.74L30.75 30.7475V23.25C30.75 22.9185 30.8817 22.6005 31.1161 22.3661C31.3505 22.1317 31.6685 22 32 22C32.3315 22 32.6495 22.1317 32.8839 22.3661C33.1183 22.6005 33.25 22.9185 33.25 23.25V33.25H30.75V33.2475Z" fill="#232323"/>
</svg>
