<svg width="28" height="28" viewBox="0 0 28 28" fill="none" xmlns="http://www.w3.org/2000/svg">
<path fill-rule="evenodd" clip-rule="evenodd" d="M13.9999 -0.000168C21.7319 -0.000168 27.9999 6.268 27.9999 13.9999C27.9999 21.7319 21.7319 27.9998 13.9999 27.9998C6.26797 27.9998 -0.000112 21.7319 -0.000112 13.9999C-0.000112 6.268 6.26797 -0.000168 13.9999 -0.000168Z" fill="#467500"/>
<path d="M8.58577 11.0346H9.25418V11.703C9.25418 11.9799 9.47863 12.2043 9.75548 12.2043C10.0323 12.2043 10.2568 11.9799 10.2568 11.703V11.0346H10.9252C11.202 11.0346 11.4265 10.8102 11.4265 10.5333C11.4265 10.2565 11.202 10.032 10.9252 10.032H10.2568V9.36361C10.2568 9.08675 10.0323 8.8623 9.75548 8.8623C9.47863 8.8623 9.25418 9.08675 9.25418 9.36361V10.032H8.58577C8.30892 10.032 8.08447 10.2565 8.08447 10.5333C8.08447 10.8102 8.30892 11.0346 8.58577 11.0346Z" fill="white"/>
<path d="M16.3729 11.0347H18.3781C18.6549 11.0347 18.8794 10.8103 18.8794 10.5334C18.8794 10.2566 18.6549 10.0321 18.3781 10.0321H16.3729C16.096 10.0321 15.8716 10.2566 15.8716 10.5334C15.8716 10.8103 16.096 11.0347 16.3729 11.0347Z" fill="white"/>
<path d="M18.5448 18.4873H16.2054C15.9286 18.4873 15.7041 18.7118 15.7041 18.9886C15.7041 19.2655 15.9286 19.4899 16.2054 19.4899H18.5448C18.8217 19.4899 19.0461 19.2655 19.0461 18.9886C19.0461 18.7118 18.8217 18.4873 18.5448 18.4873Z" fill="white"/>
<path d="M18.5448 16.8164H16.2054C15.9286 16.8164 15.7041 17.0409 15.7041 17.3177C15.7041 17.5946 15.9286 17.819 16.2054 17.819H18.5448C18.8217 17.819 19.0461 17.5946 19.0461 17.3177C19.0461 17.0409 18.8217 16.8164 18.5448 16.8164Z" fill="white"/>
<path d="M10.9457 16.9631C10.75 16.7674 10.4326 16.7674 10.2368 16.9631L9.75577 17.4442L9.27472 16.9631C9.07898 16.7673 8.76155 16.7673 8.56578 16.9631C8.37 17.1589 8.37 17.4763 8.56578 17.6721L9.04683 18.1531L8.56578 18.6342C8.37 18.8299 8.37 19.1473 8.56578 19.3431C8.66366 19.441 8.79196 19.4899 8.92027 19.4899C9.04857 19.4899 9.17687 19.441 9.27472 19.3431L9.75577 18.8621L10.2368 19.3431C10.3347 19.441 10.463 19.4899 10.5913 19.4899C10.7196 19.4899 10.8479 19.441 10.9457 19.3431C11.1415 19.1473 11.1415 18.8299 10.9457 18.6341L10.4647 18.1531L10.9458 17.6721C11.1415 17.4763 11.1415 17.1589 10.9457 16.9631Z" fill="white"/>
<path d="M21.6865 15.2847V7.72607C21.6865 6.89682 21.0119 6.22217 20.1826 6.22217H6.94824C6.11899 6.22217 5.44434 6.89682 5.44434 7.72607V20.9604C5.44434 21.7897 6.11899 22.4644 6.94824 22.4644H14.5068C15.3286 23.013 16.3152 23.3333 17.3753 23.3333C20.2317 23.3333 22.5554 21.0095 22.5554 18.1532C22.5554 17.0931 22.2351 16.1065 21.6865 15.2847ZM20.6839 7.72607V14.1705C19.7859 13.4232 18.6322 12.973 17.3753 12.973C16.1184 12.973 14.9648 13.4232 14.0667 14.1705V7.22477H20.1826C20.459 7.22477 20.6839 7.44966 20.6839 7.72607ZM6.94824 7.22477H13.0641V13.842H6.44694V7.72607C6.44694 7.44966 6.67182 7.22477 6.94824 7.22477ZM6.44694 20.9604V14.8446H13.0641V15.2847C12.5155 16.1065 12.1952 17.0931 12.1952 18.1532C12.1952 19.4101 12.6453 20.5637 13.3926 21.4618H6.94824C6.67182 21.4618 6.44694 21.2369 6.44694 20.9604ZM17.3753 22.3307C15.0718 22.3307 13.1978 20.4566 13.1978 18.1532C13.1978 15.8497 15.0718 13.9756 17.3753 13.9756C19.6788 13.9756 21.5528 15.8497 21.5528 18.1532C21.5528 20.4566 19.6788 22.3307 17.3753 22.3307Z" fill="white"/>
</svg>
