<svg width="14" height="13" viewBox="0 0 14 13" fill="none" xmlns="http://www.w3.org/2000/svg">
<path d="M13.8391 0.903021L11.6957 11.7095C11.6957 11.7095 11.396 12.4589 10.5716 12.0992L5.62557 8.30721L3.82707 7.43796L0.799511 6.41871C0.799511 6.41871 0.334886 6.2539 0.289886 5.89418C0.244886 5.53446 0.814511 5.33965 0.814511 5.33965L12.8498 0.618396C12.8498 0.618396 13.839 0.183771 13.839 0.903209" fill="white"/>
<path d="M5.24534 11.5877C5.24534 11.5877 5.10097 11.5742 4.92097 11.0046C4.74125 10.4351 3.8269 7.43751 3.8269 7.43751L11.0961 2.82126C11.0961 2.82126 11.5158 2.56645 11.5008 2.82126C11.5008 2.82126 11.5757 2.86626 11.3508 3.07607C11.1261 3.28598 5.6405 8.21695 5.6405 8.21695" fill="#467500"/>
<path d="M7.52189 9.76103L5.56561 11.5447C5.56561 11.5447 5.41261 11.6608 5.24536 11.588L5.61999 8.2749" fill="white"/>
</svg>
