<svg width="56" height="56" viewBox="0 0 56 56" fill="none" xmlns="http://www.w3.org/2000/svg">
<path fill-rule="evenodd" clip-rule="evenodd" d="M30.7987 35.8166C31.6154 36.3999 32.6654 35.9333 32.6654 34.8833V29.6333L28.3487 33.9499L30.7987 35.8166Z" fill="white"/>
<path fill-rule="evenodd" clip-rule="evenodd" d="M38.1487 20.1833C37.682 19.7166 36.982 19.7166 36.5154 20.1833L32.6654 24.0333V21.1166C32.6654 20.1833 31.4987 19.5999 30.7987 20.1833L27.532 22.8666C27.0654 23.0999 26.5987 23.3333 26.0154 23.3333H23.332C22.0487 23.3333 20.9987 24.3833 20.9987 25.6666V30.3333C20.9987 31.6166 22.0487 32.6666 23.332 32.6666H24.032L20.182 36.5166C19.7154 36.9833 19.7154 37.6833 20.182 38.1499C20.6487 38.6166 21.3487 38.6166 21.8154 38.1499L38.1487 21.8166C38.6154 21.3499 38.6154 20.6499 38.1487 20.1833Z" fill="white"/>
<circle opacity="0.2" cx="28" cy="28" r="28" fill="white"/>
</svg>
