<svg width="16" height="17" viewBox="0 0 16 17" fill="none" xmlns="http://www.w3.org/2000/svg">
<path d="M15.1708 9.92963C15.6477 5.91517 14.9416 3.38074 13.6681 2.23442L13.6687 2.23375C11.6132 0.276142 4.67135 -0.0136021 2.21218 2.32167C1.10782 3.464 0.718833 5.14052 0.676204 7.21602C0.633575 9.29219 0.582953 13.1814 4.20709 14.2365H4.21042L4.20709 15.8477C4.20709 15.8477 4.18244 16.5005 4.59941 16.6317C5.07632 16.7862 5.29213 16.4832 6.77549 14.7114C9.25597 14.9266 11.161 14.4337 11.3774 14.3617C11.8783 14.1939 14.7125 13.8189 15.1708 9.92963ZM7.01994 13.5777C7.01994 13.5777 5.44999 15.5354 4.96176 16.0436C4.8019 16.2088 4.62672 16.1934 4.62938 15.8657C4.62938 15.6506 4.64137 13.1908 4.64137 13.1908C1.56875 12.3102 1.74992 8.99845 1.78323 7.26598C1.81653 5.53284 2.13359 4.11342 3.06876 3.1576C5.22619 1.13472 11.3122 1.58699 12.8628 3.04437C14.7584 4.72488 14.0837 9.4727 14.0877 9.63455C13.6981 12.881 11.4014 13.0868 10.9791 13.2274C10.7986 13.2873 9.12342 13.7183 7.01994 13.5777Z" fill="white"/>
<path d="M7.88862 3.53809C7.63218 3.53809 7.63218 3.93773 7.88862 3.94106C9.8782 3.95638 11.5168 5.34316 11.5347 7.88692C11.5347 8.15535 11.9277 8.15202 11.9244 7.88359H11.9237C11.9024 5.14267 10.1133 3.55341 7.88862 3.53809Z" fill="white"/>
<path d="M10.5055 7.46518C10.4995 7.73028 10.8918 7.74294 10.8952 7.47451C10.9278 5.96317 9.99596 4.71827 8.24484 4.58705C7.9884 4.5684 7.96176 4.97138 8.21753 4.99003C9.73619 5.10526 10.5362 6.14168 10.5055 7.46518Z" fill="white"/>
<path d="M10.086 9.18419C9.75695 8.99369 9.42191 9.11225 9.28337 9.29942L8.99363 9.67442C8.84642 9.86492 8.57133 9.83961 8.57133 9.83961C6.56377 9.30874 6.02691 7.20793 6.02691 7.20793C6.02691 7.20793 6.00226 6.92351 6.1861 6.77098L6.54845 6.47124C6.72962 6.32737 6.84419 5.98101 6.65968 5.64064C6.16679 4.7501 5.83574 4.44303 5.66723 4.20724C5.49005 3.98544 5.22362 3.93548 4.94653 4.08535H4.94053C4.36437 4.42239 3.7336 5.05316 3.93542 5.70259C4.27978 6.38732 4.91256 8.57006 6.92945 10.2193C7.87728 10.9993 9.37729 11.7985 10.0141 11.9831L10.0201 11.9924C10.6475 12.2015 11.2576 11.5461 11.5833 10.9526V10.948C11.7279 10.6609 11.6799 10.3891 11.4688 10.2113C11.0944 9.84627 10.5296 9.44329 10.086 9.18419Z" fill="white"/>
<path d="M8.51923 6.07381C9.15933 6.11111 9.46972 6.44549 9.50303 7.13221C9.51501 7.40064 9.90467 7.38199 9.89268 7.11356C9.85005 6.21702 9.38247 5.71746 8.54054 5.67084C8.2841 5.65552 8.26012 6.05849 8.51923 6.07381Z" fill="white"/>
</svg>
