<svg width="16" height="16" viewBox="0 0 16 16" fill="none" xmlns="http://www.w3.org/2000/svg">
<path d="M13.1961 2.80054C12.5204 2.12142 11.7155 1.58297 10.8285 1.21658C9.94146 0.850199 8.98998 0.663218 8.02956 0.666548C4.00544 0.666548 0.72571 3.92987 0.72571 7.93386C0.72571 9.21719 1.06474 10.4639 1.69857 11.5638L0.666748 15.3332L4.53609 14.3212C5.60477 14.9005 6.80611 15.2085 8.02956 15.2085C12.0537 15.2085 15.3334 11.9452 15.3334 7.94119C15.3334 5.99787 14.5743 4.17187 13.1961 2.80054ZM8.02956 13.9765C6.93877 13.9765 5.8701 13.6832 4.93408 13.1332L4.71298 13.0012L2.41348 13.6025L3.02521 11.3732L2.8778 11.1459C2.27179 10.183 1.95 9.06997 1.94916 7.93386C1.94916 4.60454 4.67613 1.89121 8.02219 1.89121C9.64363 1.89121 11.1693 2.52188 12.3116 3.66587C12.8773 4.22611 13.3256 4.89249 13.6305 5.62638C13.9354 6.36027 14.0908 7.14708 14.0879 7.94119C14.1026 11.2705 11.3756 13.9765 8.02956 13.9765ZM11.3609 9.45919C11.1766 9.37119 10.2775 8.93119 10.1153 8.86519C9.94581 8.80652 9.82789 8.77719 9.70259 8.95319C9.5773 9.13652 9.2309 9.54719 9.12772 9.66452C9.02454 9.78919 8.91398 9.80385 8.72973 9.70852C8.54547 9.62052 7.95586 9.42252 7.26306 8.80652C6.71767 8.32253 6.35653 7.72853 6.24598 7.54519C6.14279 7.36186 6.23124 7.26653 6.32705 7.1712C6.40812 7.09053 6.5113 6.95853 6.59975 6.85586C6.68819 6.7532 6.72504 6.67253 6.784 6.5552C6.84296 6.43053 6.81348 6.32786 6.76926 6.23986C6.72504 6.15187 6.35653 5.2572 6.20913 4.89054C6.06172 4.53854 5.90695 4.58254 5.7964 4.5752H5.44263C5.31733 4.5752 5.12571 4.6192 4.95619 4.80254C4.79405 4.98587 4.32236 5.42587 4.32236 6.32053C4.32236 7.2152 4.97831 8.08053 5.06675 8.19786C5.15519 8.32253 6.35653 10.1559 8.18434 10.9405C8.61918 11.1312 8.95821 11.2412 9.22353 11.3218C9.65837 11.4612 10.0564 11.4392 10.3733 11.3952C10.727 11.3438 11.4567 10.9552 11.6041 10.5299C11.7589 10.1045 11.7589 9.74519 11.7073 9.66452C11.6557 9.58385 11.5451 9.54719 11.3609 9.45919Z" fill="white"/>
</svg>
