<svg viewBox="0 0 23 17" xmlns="http://www.w3.org/2000/svg">
  <path d="M2.58626 4.09419V16.894H1.04552C0.468292 16.894 0 16.4258 0 15.8485V2.20898L1.68918 2.25503L2.58626 4.09419Z" />
  <path d="M22.1759 2.20802V15.8476C22.1759 16.4248 21.7076 16.8931 21.1298 16.8931H19.5896V4.09323L20.4425 2.07812L22.1759 2.20802Z" />
  <path d="M22.1759 1.04552V2.20823L19.5896 4.09344L11.0879 10.29L2.58626 4.09344L0 2.20823V1.04552C0 0.468292 0.468292 0 1.04552 0H1.6508L11.0879 6.87838L20.5251 0H21.1298C21.7076 0 22.1759 0.468249 22.1759 1.04552Z" />
  <path d="M2.58626 4.09419L0 3.69321V2.20898L2.58626 4.09419Z" />
</svg>