<svg  viewBox="0 0 22 24"  xmlns="http://www.w3.org/2000/svg">
<path d="M21.756 13.894C22.4714 7.87226 21.4123 4.07062 19.502 2.35113L19.503 2.35014C16.4197 -0.586275 6.0069 -1.02089 2.31815 2.48202C0.661613 4.19551 0.0781277 6.71029 0.0141841 9.82354C-0.0497595 12.9378 -0.125693 18.7717 5.31051 20.3543H5.31551L5.31051 22.7711C5.31051 22.7711 5.27354 23.7503 5.89899 23.9471C6.61436 24.1789 6.93808 23.7243 9.16311 21.0666C12.8838 21.3893 15.7413 20.65 16.066 20.5421C16.8174 20.2903 21.0686 19.7278 21.756 13.894ZM9.52979 19.3661C9.52979 19.3661 7.17487 22.3025 6.44251 23.0649C6.20272 23.3126 5.93996 23.2897 5.94395 22.7981C5.94395 22.4754 5.96194 18.7856 5.96194 18.7856C1.353 17.4648 1.62476 12.4972 1.67472 9.89848C1.72468 7.29877 2.20026 5.16965 3.60302 3.73591C6.83916 0.70159 15.9681 1.37999 18.2941 3.56606C21.1376 6.08684 20.1254 13.2086 20.1314 13.4513C19.547 18.321 16.102 18.6298 15.4686 18.8406C15.1978 18.9305 12.685 19.5769 9.52979 19.3661Z" />
<path d="M10.8327 4.30664C10.448 4.30664 10.448 4.90611 10.8327 4.91111C13.8171 4.93409 16.2749 7.01425 16.3019 10.8299C16.3019 11.2325 16.8913 11.2275 16.8863 10.8249H16.8853C16.8534 6.71352 14.1697 4.32962 10.8327 4.30664Z" />
<path d="M14.758 10.197C14.749 10.5947 15.3375 10.6137 15.3425 10.211C15.3915 7.94403 13.9937 6.07667 11.367 5.87985C10.9824 5.85187 10.9424 6.45634 11.3261 6.48431C13.604 6.65716 14.804 8.21179 14.758 10.197Z" />
<path d="M14.1287 12.776C13.6352 12.4903 13.1326 12.6681 12.9248 12.9489L12.4902 13.5114C12.2694 13.7971 11.8568 13.7592 11.8568 13.7592C8.84541 12.9629 8.04012 9.81165 8.04012 9.81165C8.04012 9.81165 8.00315 9.38502 8.27891 9.15623L8.82243 8.70662C9.09419 8.49081 9.26604 7.97127 8.98928 7.46072C8.24993 6.1249 7.75337 5.66431 7.50059 5.31062C7.23483 4.97791 6.83518 4.90298 6.41955 5.12778H6.41056C5.54632 5.63333 4.60015 6.5795 4.90289 7.55364C5.41943 8.58073 6.36859 11.8548 9.39392 14.3287C10.8157 15.4986 13.0657 16.6976 14.0208 16.9743L14.0298 16.9883C14.971 17.302 15.8862 16.3189 16.3748 15.4287V15.4217C16.5916 14.9911 16.5196 14.5834 16.2029 14.3167C15.6414 13.7692 14.7942 13.1647 14.1287 12.776Z" />
<path d="M11.7787 8.10999C12.7389 8.16594 13.2045 8.6675 13.2544 9.69759C13.2724 10.1002 13.8569 10.0723 13.8389 9.66961C13.775 8.3248 13.0736 7.57546 11.8107 7.50552C11.426 7.48254 11.3901 8.08701 11.7787 8.10999Z" />
</svg>
